# xmcd CD database file
#
# Track frame offsets:
#	150
#	17000
#	33191
#
# Disc length: 635 seconds
#
# Revision: 0
# Processed by: cddbd v1.5.2PL0 Copyright (c) Steve Scherf et al.
# Submitted via: CDex 1.81
#
DISCID=16027903
DTITLE=Stan Silver - Time to be Free
DYEAR=2014
DGENRE=Country
TTITLE0=Time to be Free
TTITLE1=Mind Over Heart
TTITLE2=I Didn't Feel the Rain-Radio 2014
EXTD=YEAR: 2014
EXTT0=
EXTT1=
EXTT2=
PLAYORDER=
